<svg id="visual" viewBox="0 0 1200 250" width="1200" height="250" xmlns="http://www.w3.org/2000/svg" xmlns:xlink="http://www.w3.org/1999/xlink" version="1.1"><path d="M0 54L33.3 62.3C66.7 70.7 133.3 87.3 200 93.7C266.7 100 333.3 96 400 91.7C466.7 87.3 533.3 82.7 600 84.5C666.7 86.3 733.3 94.7 800 94.2C866.7 93.7 933.3 84.3 1000 79.3C1066.7 74.3 1133.3 73.7 1166.7 73.3L1200 73L1200 251L1166.7 251C1133.3 251 1066.7 251 1000 251C933.3 251 866.7 251 800 251C733.3 251 666.7 251 600 251C533.3 251 466.7 251 400 251C333.3 251 266.7 251 200 251C133.3 251 66.7 251 33.3 251L0 251Z" fill="#ffffff"></path><path d="M0 121L33.3 114.7C66.7 108.3 133.3 95.7 200 88.3C266.7 81 333.3 79 400 86C466.7 93 533.3 109 600 114.2C666.7 119.3 733.3 113.7 800 110.5C866.7 107.3 933.3 106.7 1000 112.5C1066.7 118.3 1133.3 130.7 1166.7 136.8L1200 143L1200 251L1166.7 251C1133.3 251 1066.7 251 1000 251C933.3 251 866.7 251 800 251C733.3 251 666.7 251 600 251C533.3 251 466.7 251 400 251C333.3 251 266.7 251 200 251C133.3 251 66.7 251 33.3 251L0 251Z" fill="#dadae7"></path><path d="M0 156L33.3 154.2C66.7 152.3 133.3 148.7 200 141.3C266.7 134 333.3 123 400 122.5C466.7 122 533.3 132 600 140.5C666.7 149 733.3 156 800 158.7C866.7 161.3 933.3 159.7 1000 156C1066.7 152.3 1133.3 146.7 1166.7 143.8L1200 141L1200 251L1166.7 251C1133.3 251 1066.7 251 1000 251C933.3 251 866.7 251 800 251C733.3 251 666.7 251 600 251C533.3 251 466.7 251 400 251C333.3 251 266.7 251 200 251C133.3 251 66.7 251 33.3 251L0 251Z" fill="#b5b6cf"></path><path d="M0 165L33.3 168.5C66.7 172 133.3 179 200 183.2C266.7 187.3 333.3 188.7 400 181.8C466.7 175 533.3 160 600 159C666.7 158 733.3 171 800 175.7C866.7 180.3 933.3 176.7 1000 170.8C1066.7 165 1133.3 157 1166.7 153L1200 149L1200 251L1166.7 251C1133.3 251 1066.7 251 1000 251C933.3 251 866.7 251 800 251C733.3 251 666.7 251 600 251C533.3 251 466.7 251 400 251C333.3 251 266.7 251 200 251C133.3 251 66.7 251 33.3 251L0 251Z" fill="#9194b7"></path><path d="M0 210L33.3 205.3C66.7 200.7 133.3 191.3 200 187.7C266.7 184 333.3 186 400 183.8C466.7 181.7 533.3 175.3 600 174.3C666.7 173.3 733.3 177.7 800 177.5C866.7 177.3 933.3 172.7 1000 176.3C1066.7 180 1133.3 192 1166.7 198L1200 204L1200 251L1166.7 251C1133.3 251 1066.7 251 1000 251C933.3 251 866.7 251 800 251C733.3 251 666.7 251 600 251C533.3 251 466.7 251 400 251C333.3 251 266.7 251 200 251C133.3 251 66.7 251 33.3 251L0 251Z" fill="#6d73a1"></path><path d="M0 215L33.3 216C66.7 217 133.3 219 200 219C266.7 219 333.3 217 400 217.5C466.7 218 533.3 221 600 222.2C666.7 223.3 733.3 222.7 800 222.8C866.7 223 933.3 224 1000 223.7C1066.7 223.3 1133.3 221.7 1166.7 220.8L1200 220L1200 251L1166.7 251C1133.3 251 1066.7 251 1000 251C933.3 251 866.7 251 800 251C733.3 251 666.7 251 600 251C533.3 251 466.7 251 400 251C333.3 251 266.7 251 200 251C133.3 251 66.7 251 33.3 251L0 251Z" fill="#48538a"></path></svg>