<svg id="visual" viewBox="0 0 1200 250" width="1200" height="250" xmlns="http://www.w3.org/2000/svg" xmlns:xlink="http://www.w3.org/1999/xlink" version="1.1"><path d="M0 72L28.5 78.5C57 85 114 98 171.2 99.8C228.3 101.7 285.7 92.3 342.8 92.5C400 92.7 457 102.3 514.2 99.5C571.3 96.7 628.7 81.3 685.8 82.2C743 83 800 100 857.2 107.3C914.3 114.7 971.7 112.3 1028.8 106.3C1086 100.3 1143 90.7 1171.5 85.8L1200 81L1200 251L1171.5 251C1143 251 1086 251 1028.8 251C971.7 251 914.3 251 857.2 251C800 251 743 251 685.8 251C628.7 251 571.3 251 514.2 251C457 251 400 251 342.8 251C285.7 251 228.3 251 171.2 251C114 251 57 251 28.5 251L0 251Z" fill="#fa7268"></path><path d="M0 131L28.5 126C57 121 114 111 171.2 109.3C228.3 107.7 285.7 114.3 342.8 120.7C400 127 457 133 514.2 137C571.3 141 628.7 143 685.8 140.7C743 138.3 800 131.7 857.2 129.7C914.3 127.7 971.7 130.3 1028.8 133.5C1086 136.7 1143 140.3 1171.5 142.2L1200 144L1200 251L1171.5 251C1143 251 1086 251 1028.8 251C971.7 251 914.3 251 857.2 251C800 251 743 251 685.8 251C628.7 251 571.3 251 514.2 251C457 251 400 251 342.8 251C285.7 251 228.3 251 171.2 251C114 251 57 251 28.5 251L0 251Z" fill="#df5f83"></path><path d="M0 171L28.5 165.2C57 159.3 114 147.7 171.2 146.7C228.3 145.7 285.7 155.3 342.8 158.8C400 162.3 457 159.7 514.2 162.7C571.3 165.7 628.7 174.3 685.8 176.2C743 178 800 173 857.2 164.7C914.3 156.3 971.7 144.7 1028.8 143C1086 141.3 1143 149.7 1171.5 153.8L1200 158L1200 251L1171.5 251C1143 251 1086 251 1028.8 251C971.7 251 914.3 251 857.2 251C800 251 743 251 685.8 251C628.7 251 571.3 251 514.2 251C457 251 400 251 342.8 251C285.7 251 228.3 251 171.2 251C114 251 57 251 28.5 251L0 251Z" fill="#b45994"></path><path d="M0 174L28.5 173C57 172 114 170 171.2 175.3C228.3 180.7 285.7 193.3 342.8 193.7C400 194 457 182 514.2 179.5C571.3 177 628.7 184 685.8 189.7C743 195.3 800 199.7 857.2 199.7C914.3 199.7 971.7 195.3 1028.8 196.3C1086 197.3 1143 203.7 1171.5 206.8L1200 210L1200 251L1171.5 251C1143 251 1086 251 1028.8 251C971.7 251 914.3 251 857.2 251C800 251 743 251 685.8 251C628.7 251 571.3 251 514.2 251C457 251 400 251 342.8 251C285.7 251 228.3 251 171.2 251C114 251 57 251 28.5 251L0 251Z" fill="#7f5797"></path><path d="M0 219L28.5 216.8C57 214.7 114 210.3 171.2 211.5C228.3 212.7 285.7 219.3 342.8 221.2C400 223 457 220 514.2 215.2C571.3 210.3 628.7 203.7 685.8 199.8C743 196 800 195 857.2 199C914.3 203 971.7 212 1028.8 214.5C1086 217 1143 213 1171.5 211L1200 209L1200 251L1171.5 251C1143 251 1086 251 1028.8 251C971.7 251 914.3 251 857.2 251C800 251 743 251 685.8 251C628.7 251 571.3 251 514.2 251C457 251 400 251 342.8 251C285.7 251 228.3 251 171.2 251C114 251 57 251 28.5 251L0 251Z" fill="#48538a"></path></svg>