<svg id="visual" viewBox="0 0 1200 250" width="1200" height="250" xmlns="http://www.w3.org/2000/svg" xmlns:xlink="http://www.w3.org/1999/xlink" version="1.1"><path d="M0 105L28.5 103C57 101 114 97 171.2 101C228.3 105 285.7 117 342.8 115.3C400 113.7 457 98.3 514.2 98.3C571.3 98.3 628.7 113.7 685.8 122C743 130.3 800 131.7 857.2 133.3C914.3 135 971.7 137 1028.8 128C1086 119 1143 99 1171.5 89L1200 79L1200 251L1171.5 251C1143 251 1086 251 1028.8 251C971.7 251 914.3 251 857.2 251C800 251 743 251 685.8 251C628.7 251 571.3 251 514.2 251C457 251 400 251 342.8 251C285.7 251 228.3 251 171.2 251C114 251 57 251 28.5 251L0 251Z" fill="#fa7268"></path><path d="M0 105L28.5 104.3C57 103.7 114 102.3 171.2 102.5C228.3 102.7 285.7 104.3 342.8 110.5C400 116.7 457 127.3 514.2 132.5C571.3 137.7 628.7 137.3 685.8 137C743 136.7 800 136.3 857.2 140.2C914.3 144 971.7 152 1028.8 148.3C1086 144.7 1143 129.3 1171.5 121.7L1200 114L1200 251L1171.5 251C1143 251 1086 251 1028.8 251C971.7 251 914.3 251 857.2 251C800 251 743 251 685.8 251C628.7 251 571.3 251 514.2 251C457 251 400 251 342.8 251C285.7 251 228.3 251 171.2 251C114 251 57 251 28.5 251L0 251Z" fill="#df5f83"></path><path d="M0 139L28.5 145.5C57 152 114 165 171.2 173.2C228.3 181.3 285.7 184.7 342.8 182.2C400 179.7 457 171.3 514.2 166.3C571.3 161.3 628.7 159.7 685.8 156.7C743 153.7 800 149.3 857.2 152.5C914.3 155.7 971.7 166.3 1028.8 169.8C1086 173.3 1143 169.7 1171.5 167.8L1200 166L1200 251L1171.5 251C1143 251 1086 251 1028.8 251C971.7 251 914.3 251 857.2 251C800 251 743 251 685.8 251C628.7 251 571.3 251 514.2 251C457 251 400 251 342.8 251C285.7 251 228.3 251 171.2 251C114 251 57 251 28.5 251L0 251Z" fill="#b45994"></path><path d="M0 178L28.5 183.7C57 189.3 114 200.7 171.2 199.8C228.3 199 285.7 186 342.8 183.7C400 181.3 457 189.7 514.2 189C571.3 188.3 628.7 178.7 685.8 173.5C743 168.3 800 167.7 857.2 175C914.3 182.3 971.7 197.7 1028.8 202C1086 206.3 1143 199.7 1171.5 196.3L1200 193L1200 251L1171.5 251C1143 251 1086 251 1028.8 251C971.7 251 914.3 251 857.2 251C800 251 743 251 685.8 251C628.7 251 571.3 251 514.2 251C457 251 400 251 342.8 251C285.7 251 228.3 251 171.2 251C114 251 57 251 28.5 251L0 251Z" fill="#7f5797"></path><path d="M0 204L28.5 203.8C57 203.7 114 203.3 171.2 204.8C228.3 206.3 285.7 209.7 342.8 213.2C400 216.7 457 220.3 514.2 217.5C571.3 214.7 628.7 205.3 685.8 207C743 208.7 800 221.3 857.2 225.3C914.3 229.3 971.7 224.7 1028.8 221.8C1086 219 1143 218 1171.5 217.5L1200 217L1200 251L1171.5 251C1143 251 1086 251 1028.8 251C971.7 251 914.3 251 857.2 251C800 251 743 251 685.8 251C628.7 251 571.3 251 514.2 251C457 251 400 251 342.8 251C285.7 251 228.3 251 171.2 251C114 251 57 251 28.5 251L0 251Z" fill="#48538a"></path></svg>