<svg id="visual" viewBox="0 0 1500 450" width="1500" height="450" xmlns="http://www.w3.org/2000/svg" xmlns:xlink="http://www.w3.org/1999/xlink" version="1.1"><path d="M0 222L35.7 207.3C71.3 192.7 142.7 163.3 214.2 144.7C285.7 126 357.3 118 428.8 127.8C500.3 137.7 571.7 165.3 643 182.5C714.3 199.7 785.7 206.3 857 214.8C928.3 223.3 999.7 233.7 1071.2 242.5C1142.7 251.3 1214.3 258.7 1285.8 249.3C1357.3 240 1428.7 214 1464.3 201L1500 188L1500 451L1464.3 451C1428.7 451 1357.3 451 1285.8 451C1214.3 451 1142.7 451 1071.2 451C999.7 451 928.3 451 857 451C785.7 451 714.3 451 643 451C571.7 451 500.3 451 428.8 451C357.3 451 285.7 451 214.2 451C142.7 451 71.3 451 35.7 451L0 451Z" fill="#3e487d"></path><path d="M0 328L35.7 311C71.3 294 142.7 260 214.2 239.7C285.7 219.3 357.3 212.7 428.8 221.5C500.3 230.3 571.7 254.7 643 252.3C714.3 250 785.7 221 857 225.8C928.3 230.7 999.7 269.3 1071.2 286.2C1142.7 303 1214.3 298 1285.8 288.5C1357.3 279 1428.7 265 1464.3 258L1500 251L1500 451L1464.3 451C1428.7 451 1357.3 451 1285.8 451C1214.3 451 1142.7 451 1071.2 451C999.7 451 928.3 451 857 451C785.7 451 714.3 451 643 451C571.7 451 500.3 451 428.8 451C357.3 451 285.7 451 214.2 451C142.7 451 71.3 451 35.7 451L0 451Z" fill="#7e80a7"></path><path d="M0 286L35.7 300C71.3 314 142.7 342 214.2 344.5C285.7 347 357.3 324 428.8 305.2C500.3 286.3 571.7 271.7 643 276C714.3 280.3 785.7 303.7 857 320C928.3 336.3 999.7 345.7 1071.2 334.5C1142.7 323.3 1214.3 291.7 1285.8 292.2C1357.3 292.7 1428.7 325.3 1464.3 341.7L1500 358L1500 451L1464.3 451C1428.7 451 1357.3 451 1285.8 451C1214.3 451 1142.7 451 1071.2 451C999.7 451 928.3 451 857 451C785.7 451 714.3 451 643 451C571.7 451 500.3 451 428.8 451C357.3 451 285.7 451 214.2 451C142.7 451 71.3 451 35.7 451L0 451Z" fill="#bdbdd3"></path><path d="M0 340L35.7 341.8C71.3 343.7 142.7 347.3 214.2 362C285.7 376.7 357.3 402.3 428.8 411.3C500.3 420.3 571.7 412.7 643 398C714.3 383.3 785.7 361.7 857 358.2C928.3 354.7 999.7 369.3 1071.2 380.8C1142.7 392.3 1214.3 400.7 1285.8 402.5C1357.3 404.3 1428.7 399.7 1464.3 397.3L1500 395L1500 451L1464.3 451C1428.7 451 1357.3 451 1285.8 451C1214.3 451 1142.7 451 1071.2 451C999.7 451 928.3 451 857 451C785.7 451 714.3 451 643 451C571.7 451 500.3 451 428.8 451C357.3 451 285.7 451 214.2 451C142.7 451 71.3 451 35.7 451L0 451Z" fill="#ffffff"></path></svg>