<svg id="visual" viewBox="0 0 1500 200" width="1500" height="200" xmlns="http://www.w3.org/2000/svg" xmlns:xlink="http://www.w3.org/1999/xlink" version="1.1"><path d="M0 45L50 53.8C100 62.7 200 80.3 300 76.5C400 72.7 500 47.3 600 40.7C700 34 800 46 900 51.8C1000 57.7 1100 57.3 1200 55.5C1300 53.7 1400 50.3 1450 48.7L1500 47L1500 201L1450 201C1400 201 1300 201 1200 201C1100 201 1000 201 900 201C800 201 700 201 600 201C500 201 400 201 300 201C200 201 100 201 50 201L0 201Z" fill="#3e487d"></path><path d="M0 121L50 114.5C100 108 200 95 300 94.8C400 94.7 500 107.3 600 103.3C700 99.3 800 78.7 900 71.3C1000 64 1100 70 1200 80.5C1300 91 1400 106 1450 113.5L1500 121L1500 201L1450 201C1400 201 1300 201 1200 201C1100 201 1000 201 900 201C800 201 700 201 600 201C500 201 400 201 300 201C200 201 100 201 50 201L0 201Z" fill="#9d9ebd"></path><path d="M0 176L50 173.7C100 171.3 200 166.7 300 159.8C400 153 500 144 600 138.2C700 132.3 800 129.7 900 126.5C1000 123.3 1100 119.7 1200 129.7C1300 139.7 1400 163.3 1450 175.2L1500 187L1500 201L1450 201C1400 201 1300 201 1200 201C1100 201 1000 201 900 201C800 201 700 201 600 201C500 201 400 201 300 201C200 201 100 201 50 201L0 201Z" fill="#ffffff"></path></svg>