<svg id="visual" viewBox="0 0 1500 200" width="1500" height="200" xmlns="http://www.w3.org/2000/svg" xmlns:xlink="http://www.w3.org/1999/xlink" version="1.1"><path d="M0 153L50 144.2C100 135.3 200 117.7 300 121.5C400 125.3 500 150.7 600 157.3C700 164 800 152 900 146.2C1000 140.3 1100 140.7 1200 142.5C1300 144.3 1400 147.7 1450 149.3L1500 151L1500 0L1450 0C1400 0 1300 0 1200 0C1100 0 1000 0 900 0C800 0 700 0 600 0C500 0 400 0 300 0C200 0 100 0 50 0L0 0Z" fill="#ffffff"></path><path d="M0 77L50 83.5C100 90 200 103 300 103.2C400 103.3 500 90.7 600 94.7C700 98.7 800 119.3 900 126.7C1000 134 1100 128 1200 117.5C1300 107 1400 92 1450 84.5L1500 77L1500 0L1450 0C1400 0 1300 0 1200 0C1100 0 1000 0 900 0C800 0 700 0 600 0C500 0 400 0 300 0C200 0 100 0 50 0L0 0Z" fill="#3e487d"></path><path d="M0 22L50 24.3C100 26.7 200 31.3 300 38.2C400 45 500 54 600 59.8C700 65.7 800 68.3 900 71.5C1000 74.7 1100 78.3 1200 68.3C1300 58.3 1400 34.7 1450 22.8L1500 11L1500 0L1450 0C1400 0 1300 0 1200 0C1100 0 1000 0 900 0C800 0 700 0 600 0C500 0 400 0 300 0C200 0 100 0 50 0L0 0Z" fill="#ffffff"></path></svg>