<svg id="visual" viewBox="0 0 350 900" width="350" height="900" xmlns="http://www.w3.org/2000/svg" xmlns:xlink="http://www.w3.org/1999/xlink" version="1.1"><path d="M174 900L162.7 878.5C151.3 857 128.7 814 114.2 771.2C99.7 728.3 93.3 685.7 101 642.8C108.7 600 130.3 557 143.7 514.2C157 471.3 162 428.7 168.7 385.8C175.3 343 183.7 300 190.5 257.2C197.3 214.3 202.7 171.7 195.3 128.8C188 86 168 43 158 21.5L148 0L350 0L350 21.5C350 43 350 86 350 128.8C350 171.7 350 214.3 350 257.2C350 300 350 343 350 385.8C350 428.7 350 471.3 350 514.2C350 557 350 600 350 642.8C350 685.7 350 728.3 350 771.2C350 814 350 857 350 878.5L350 900Z" fill="#3e5a7c"></path><path d="M257 900L243.7 878.5C230.3 857 203.7 814 187.8 771.2C172 728.3 167 685.7 174 642.8C181 600 200 557 198.2 514.2C196.3 471.3 173.7 428.7 177.3 385.8C181 343 211 300 224.2 257.2C237.3 214.3 233.7 171.7 226.3 128.8C219 86 208 43 202.5 21.5L197 0L350 0L350 21.5C350 43 350 86 350 128.8C350 171.7 350 214.3 350 257.2C350 300 350 343 350 385.8C350 428.7 350 471.3 350 514.2C350 557 350 600 350 642.8C350 685.7 350 728.3 350 771.2C350 814 350 857 350 878.5L350 900Z" fill="#3b4b61"></path><path d="M224 900L235 878.5C246 857 268 814 270 771.2C272 728.3 254 685.7 239.3 642.8C224.7 600 213.3 557 216.7 514.2C220 471.3 238 428.7 250.7 385.8C263.3 343 270.7 300 262 257.2C253.3 214.3 228.7 171.7 229 128.8C229.3 86 254.7 43 267.3 21.5L280 0L350 0L350 21.5C350 43 350 86 350 128.8C350 171.7 350 214.3 350 257.2C350 300 350 343 350 385.8C350 428.7 350 471.3 350 514.2C350 557 350 600 350 642.8C350 685.7 350 728.3 350 771.2C350 814 350 857 350 878.5L350 900Z" fill="#363d47"></path><path d="M266 900L267.5 878.5C269 857 272 814 283.3 771.2C294.7 728.3 314.3 685.7 321.3 642.8C328.3 600 322.7 557 311.3 514.2C300 471.3 283 428.7 280.3 385.8C277.7 343 289.3 300 298.3 257.2C307.3 214.3 313.7 171.7 315 128.8C316.3 86 312.7 43 310.8 21.5L309 0L350 0L350 21.5C350 43 350 86 350 128.8C350 171.7 350 214.3 350 257.2C350 300 350 343 350 385.8C350 428.7 350 471.3 350 514.2C350 557 350 600 350 642.8C350 685.7 350 728.3 350 771.2C350 814 350 857 350 878.5L350 900Z" fill="#2f2f2f"></path></svg>