<svg id="visual" viewBox="0 0 1200 250" width="1200" height="250" xmlns="http://www.w3.org/2000/svg" xmlns:xlink="http://www.w3.org/1999/xlink" version="1.1"><path d="M0 170L28.5 166C57 162 114 154 171.2 151.5C228.3 149 285.7 152 342.8 147.8C400 143.7 457 132.3 514.2 135.5C571.3 138.7 628.7 156.3 685.8 158.7C743 161 800 148 857.2 145.7C914.3 143.3 971.7 151.7 1028.8 157.8C1086 164 1143 168 1171.5 170L1200 172L1200 0L1171.5 0C1143 0 1086 0 1028.8 0C971.7 0 914.3 0 857.2 0C800 0 743 0 685.8 0C628.7 0 571.3 0 514.2 0C457 0 400 0 342.8 0C285.7 0 228.3 0 171.2 0C114 0 57 0 28.5 0L0 0Z" fill="#fa7268"></path><path d="M0 142L28.5 139.5C57 137 114 132 171.2 123.7C228.3 115.3 285.7 103.7 342.8 100.2C400 96.7 457 101.3 514.2 102.3C571.3 103.3 628.7 100.7 685.8 106C743 111.3 800 124.7 857.2 132.8C914.3 141 971.7 144 1028.8 146C1086 148 1143 149 1171.5 149.5L1200 150L1200 0L1171.5 0C1143 0 1086 0 1028.8 0C971.7 0 914.3 0 857.2 0C800 0 743 0 685.8 0C628.7 0 571.3 0 514.2 0C457 0 400 0 342.8 0C285.7 0 228.3 0 171.2 0C114 0 57 0 28.5 0L0 0Z" fill="#df5f83"></path><path d="M0 101L28.5 98.8C57 96.7 114 92.3 171.2 95.2C228.3 98 285.7 108 342.8 105.3C400 102.7 457 87.3 514.2 82.5C571.3 77.7 628.7 83.3 685.8 81.3C743 79.3 800 69.7 857.2 68.2C914.3 66.7 971.7 73.3 1028.8 82.3C1086 91.3 1143 102.7 1171.5 108.3L1200 114L1200 0L1171.5 0C1143 0 1086 0 1028.8 0C971.7 0 914.3 0 857.2 0C800 0 743 0 685.8 0C628.7 0 571.3 0 514.2 0C457 0 400 0 342.8 0C285.7 0 228.3 0 171.2 0C114 0 57 0 28.5 0L0 0Z" fill="#b45994"></path><path d="M0 35L28.5 43.2C57 51.3 114 67.7 171.2 68.5C228.3 69.3 285.7 54.7 342.8 48.7C400 42.7 457 45.3 514.2 45.8C571.3 46.3 628.7 44.7 685.8 50.8C743 57 800 71 857.2 78.3C914.3 85.7 971.7 86.3 1028.8 81.5C1086 76.7 1143 66.3 1171.5 61.2L1200 56L1200 0L1171.5 0C1143 0 1086 0 1028.8 0C971.7 0 914.3 0 857.2 0C800 0 743 0 685.8 0C628.7 0 571.3 0 514.2 0C457 0 400 0 342.8 0C285.7 0 228.3 0 171.2 0C114 0 57 0 28.5 0L0 0Z" fill="#7f5797"></path><path d="M0 55L28.5 49.5C57 44 114 33 171.2 28.2C228.3 23.3 285.7 24.7 342.8 30.2C400 35.7 457 45.3 514.2 43.2C571.3 41 628.7 27 685.8 20C743 13 800 13 857.2 14.3C914.3 15.7 971.7 18.3 1028.8 23.5C1086 28.7 1143 36.3 1171.5 40.2L1200 44L1200 0L1171.5 0C1143 0 1086 0 1028.8 0C971.7 0 914.3 0 857.2 0C800 0 743 0 685.8 0C628.7 0 571.3 0 514.2 0C457 0 400 0 342.8 0C285.7 0 228.3 0 171.2 0C114 0 57 0 28.5 0L0 0Z" fill="#48538a"></path></svg>