<svg id="visual" viewBox="0 0 1200 250" width="1200" height="250" xmlns="http://www.w3.org/2000/svg" xmlns:xlink="http://www.w3.org/1999/xlink" version="1.1"><path d="M0 123L22.2 125C44.3 127 88.7 131 133.2 126.8C177.7 122.7 222.3 110.3 266.8 103.2C311.3 96 355.7 94 400 91C444.3 88 488.7 84 533.2 84.3C577.7 84.7 622.3 89.3 666.8 93.5C711.3 97.7 755.7 101.3 800 99.3C844.3 97.3 888.7 89.7 933.2 92.5C977.7 95.3 1022.3 108.7 1066.8 111.2C1111.3 113.7 1155.7 105.3 1177.8 101.2L1200 97L1200 0L1177.8 0C1155.7 0 1111.3 0 1066.8 0C1022.3 0 977.7 0 933.2 0C888.7 0 844.3 0 800 0C755.7 0 711.3 0 666.8 0C622.3 0 577.7 0 533.2 0C488.7 0 444.3 0 400 0C355.7 0 311.3 0 266.8 0C222.3 0 177.7 0 133.2 0C88.7 0 44.3 0 22.2 0L0 0Z" fill="#ffffff"></path><path d="M0 107L22.2 106.3C44.3 105.7 88.7 104.3 133.2 105.5C177.7 106.7 222.3 110.3 266.8 109.7C311.3 109 355.7 104 400 98.7C444.3 93.3 488.7 87.7 533.2 82.8C577.7 78 622.3 74 666.8 75C711.3 76 755.7 82 800 86.8C844.3 91.7 888.7 95.3 933.2 100.3C977.7 105.3 1022.3 111.7 1066.8 115.7C1111.3 119.7 1155.7 121.3 1177.8 122.2L1200 123L1200 0L1177.8 0C1155.7 0 1111.3 0 1066.8 0C1022.3 0 977.7 0 933.2 0C888.7 0 844.3 0 800 0C755.7 0 711.3 0 666.8 0C622.3 0 577.7 0 533.2 0C488.7 0 444.3 0 400 0C355.7 0 311.3 0 266.8 0C222.3 0 177.7 0 133.2 0C88.7 0 44.3 0 22.2 0L0 0Z" fill="#dadae7"></path><path d="M0 54L22.2 55.7C44.3 57.3 88.7 60.7 133.2 68.2C177.7 75.7 222.3 87.3 266.8 87.7C311.3 88 355.7 77 400 71.2C444.3 65.3 488.7 64.7 533.2 66.3C577.7 68 622.3 72 666.8 72C711.3 72 755.7 68 800 70C844.3 72 888.7 80 933.2 81.2C977.7 82.3 1022.3 76.7 1066.8 71C1111.3 65.3 1155.7 59.7 1177.8 56.8L1200 54L1200 0L1177.8 0C1155.7 0 1111.3 0 1066.8 0C1022.3 0 977.7 0 933.2 0C888.7 0 844.3 0 800 0C755.7 0 711.3 0 666.8 0C622.3 0 577.7 0 533.2 0C488.7 0 444.3 0 400 0C355.7 0 311.3 0 266.8 0C222.3 0 177.7 0 133.2 0C88.7 0 44.3 0 22.2 0L0 0Z" fill="#b5b6cf"></path><path d="M0 55L22.2 55.2C44.3 55.3 88.7 55.7 133.2 54C177.7 52.3 222.3 48.7 266.8 52.7C311.3 56.7 355.7 68.3 400 71.2C444.3 74 488.7 68 533.2 61.7C577.7 55.3 622.3 48.7 666.8 46.8C711.3 45 755.7 48 800 50C844.3 52 888.7 53 933.2 50.8C977.7 48.7 1022.3 43.3 1066.8 47.2C1111.3 51 1155.7 64 1177.8 70.5L1200 77L1200 0L1177.8 0C1155.7 0 1111.3 0 1066.8 0C1022.3 0 977.7 0 933.2 0C888.7 0 844.3 0 800 0C755.7 0 711.3 0 666.8 0C622.3 0 577.7 0 533.2 0C488.7 0 444.3 0 400 0C355.7 0 311.3 0 266.8 0C222.3 0 177.7 0 133.2 0C88.7 0 44.3 0 22.2 0L0 0Z" fill="#9194b7"></path><path d="M0 39L22.2 36.2C44.3 33.3 88.7 27.7 133.2 24.3C177.7 21 222.3 20 266.8 25.3C311.3 30.7 355.7 42.3 400 42.5C444.3 42.7 488.7 31.3 533.2 30C577.7 28.7 622.3 37.3 666.8 40.5C711.3 43.7 755.7 41.3 800 38.3C844.3 35.3 888.7 31.7 933.2 35.3C977.7 39 1022.3 50 1066.8 50.2C1111.3 50.3 1155.7 39.7 1177.8 34.3L1200 29L1200 0L1177.8 0C1155.7 0 1111.3 0 1066.8 0C1022.3 0 977.7 0 933.2 0C888.7 0 844.3 0 800 0C755.7 0 711.3 0 666.8 0C622.3 0 577.7 0 533.2 0C488.7 0 444.3 0 400 0C355.7 0 311.3 0 266.8 0C222.3 0 177.7 0 133.2 0C88.7 0 44.3 0 22.2 0L0 0Z" fill="#6d73a1"></path><path d="M0 7L22.2 10.7C44.3 14.3 88.7 21.7 133.2 22C177.7 22.3 222.3 15.7 266.8 15.5C311.3 15.3 355.7 21.7 400 21C444.3 20.3 488.7 12.7 533.2 13C577.7 13.3 622.3 21.7 666.8 21.5C711.3 21.3 755.7 12.7 800 12.5C844.3 12.3 888.7 20.7 933.2 26.3C977.7 32 1022.3 35 1066.8 34.7C1111.3 34.3 1155.7 30.7 1177.8 28.8L1200 27L1200 0L1177.8 0C1155.7 0 1111.3 0 1066.8 0C1022.3 0 977.7 0 933.2 0C888.7 0 844.3 0 800 0C755.7 0 711.3 0 666.8 0C622.3 0 577.7 0 533.2 0C488.7 0 444.3 0 400 0C355.7 0 311.3 0 266.8 0C222.3 0 177.7 0 133.2 0C88.7 0 44.3 0 22.2 0L0 0Z" fill="#48538a"></path></svg>